<svg width="908" height="146" viewBox="0 0 908 146" fill="none" xmlns="http://www.w3.org/2000/svg">
<path d="M132.789 53.2979C138.988 53.2979 141.288 49.4974 141.288 44.7989C141.288 40.1004 138.999 36.3 132.789 36.3C126.579 36.3 124.29 40.1004 124.29 44.7989C124.29 49.4974 126.579 53.2979 132.789 53.2979Z" fill="#0033FF"/>
<path d="M62.0923 36.3109H36.2998V115.2H62.0923C93.9524 115.2 103.054 96.9972 103.054 75.7499C103.054 54.5026 93.9524 36.3109 62.0923 36.3109ZM62.399 103.065H50.8663V48.446H62.399C80.7221 48.446 88.4982 57.4378 88.4982 75.7499C88.4982 94.062 80.7221 103.054 62.399 103.054V103.065Z" fill="black"/>
<path d="M162.524 55.1269V60.5921H148.571V72.7272H162.524V103.076H139.459V60.5811H109.121V72.7162H126.108V103.065H106.076V115.2H197.1V103.065H175.864V72.7162H197.1V60.5811H175.864V48.4461H197.1V36.311H181.318C170.946 36.311 162.502 44.7551 162.502 55.1269H162.524Z" fill="#0033FF"/>
<path d="M240.362 60.5811L228.227 100.031L216.092 60.5811H201.679L219.279 111.608C221.108 116.919 218.008 121.267 212.39 121.267H206.224V133.403H215.292C223.2 133.403 230.319 128.397 232.991 120.961L254.775 60.5811H240.362Z" fill="black"/>
<rect x="399" y="36" width="79.2" height="79.2" fill="#0033FF"/>
<path d="M506.606 74.9952C506.606 86.3092 512.737 93.7546 521.351 93.7546C527.482 93.7546 531.935 90.0319 533.541 83.9004L542.3 86.8932C539.234 96.1634 531.935 102.003 521.351 102.003C507.409 102.003 497.263 90.9079 497.263 74.9952C497.263 59.0825 507.409 47.9875 521.351 47.9875C531.935 47.9875 539.234 53.827 542.3 63.0972L533.541 66.0899C531.935 59.9585 527.482 56.2358 521.351 56.2358C512.737 56.2358 506.606 63.6811 506.606 74.9952Z" fill="black"/>
<path d="M544.197 74.9952C544.197 59.0825 554.416 47.9875 568.577 47.9875C582.738 47.9875 592.957 59.0825 592.957 74.9952C592.957 90.9079 582.738 102.003 568.577 102.003C554.416 102.003 544.197 90.9079 544.197 74.9952ZM583.614 74.9952C583.614 63.6081 577.409 56.2358 568.577 56.2358C559.745 56.2358 553.54 63.6081 553.54 74.9952C553.54 86.3822 559.745 93.7546 568.577 93.7546C577.409 93.7546 583.614 86.3822 583.614 74.9952Z" fill="black"/>
<path d="M628.466 101.2H620.875L607.152 60.6884V101.2H598.466V48.7904H611.313L624.817 88.937L638.32 48.7904H650.875V101.2H642.189V60.6884L628.466 101.2Z" fill="black"/>
<path d="M668.359 80.9077V101.2H659.015V48.7904H679.965C691.644 48.7904 698.943 54.2649 698.943 64.849C698.943 75.2872 691.644 80.9077 679.965 80.9077H668.359ZM668.359 72.8784H679.454C686.169 72.8784 689.746 69.9586 689.746 64.849C689.746 59.6665 686.169 56.8197 679.454 56.8197H668.359V72.8784Z" fill="black"/>
<path d="M713.159 48.7904H723.743L743.598 101.2H734.181L729.656 89.229H707.028L702.575 101.2H693.305L713.159 48.7904ZM718.269 59.1555L710.093 81.0537H726.59L718.269 59.1555Z" fill="black"/>
<path d="M790.678 48.7904V101.2H782.502L756.516 62.7322V101.2H747.538V48.7904H757.173L781.699 85.5063V48.7904H790.678Z" fill="black"/>
<path d="M817.58 71.0535L831.157 48.7904H841.084L822.179 79.5938V101.2H812.836V79.5938L793.857 48.7904H804.003L817.58 71.0535Z" fill="black"/>
<rect x="326" width="2" height="145.2" fill="black"/>
</svg>
