<svg width="883" height="186" viewBox="0 0 883 186" fill="none" xmlns="http://www.w3.org/2000/svg">
<path d="M68.2194 136.813H55.792V67.2281H83.6634C99.2059 67.2281 108.912 74.4942 108.912 88.5519C108.912 102.61 99.2059 109.876 83.6634 109.876H68.2194V136.813ZM82.9748 99.2057C91.9101 99.2057 96.6646 95.3271 96.6646 88.5519C96.6646 81.7767 91.9101 77.8982 82.9748 77.8982H68.2194V99.222H82.9748V99.2057Z" fill="black"/>
<path d="M135.406 137.877C121.044 137.877 110.846 127.223 110.846 111.414C110.846 95.6053 121.044 84.9516 135.406 84.9516C149.768 84.9516 159.966 95.6053 159.966 111.414C159.966 127.223 149.768 137.877 135.406 137.877ZM135.406 128.09C143.276 128.09 148.227 121.79 148.227 111.414C148.227 101.039 143.276 94.738 135.406 94.738C127.536 94.738 122.585 101.039 122.585 111.414C122.585 121.79 127.536 128.09 135.406 128.09Z" fill="black"/>
<path d="M200.182 85.9335L209.314 119.662L218.348 85.9335H229.906L214.561 136.813H204.462L195.149 103.477L185.82 136.813H175.721L160.375 85.9335H172.311L181.541 119.662L190.575 85.9335H200.182Z" fill="black"/>
<path d="M230.398 111.414C230.398 96.489 240.498 84.9516 254.663 84.9516C268.828 84.9516 277.288 96.0963 277.288 110.056V113.934H241.563C242.432 122.657 247.679 127.992 255.155 127.992C260.877 127.992 265.451 125.079 266.992 119.859L276.993 123.639C273.402 132.558 265.336 137.893 255.155 137.893C240.596 137.893 230.398 127.141 230.398 111.43V111.414ZM242.154 105.212H265.549C265.451 99.5984 261.959 94.738 254.581 94.738C248.564 94.738 243.908 98.3219 242.154 105.212Z" fill="black"/>
<path d="M313.767 97.471C312.308 97.2746 311.144 97.1764 309.488 97.1764C302.11 97.1764 296.47 101.922 296.47 110.072V136.813H284.813V85.9335H296.47V93.4942C298.7 88.7483 303.946 85.6389 310.455 85.6389C311.816 85.6389 312.881 85.7371 313.75 85.8353V97.471H313.767Z" fill="black"/>
<path d="M316.505 111.414C316.505 96.489 326.604 84.9516 340.769 84.9516C354.934 84.9516 363.394 96.0963 363.394 110.056V113.934H327.67C328.539 122.657 333.785 127.992 341.261 127.992C346.983 127.992 351.557 125.079 353.098 119.859L363.099 123.639C359.509 132.558 351.442 137.893 341.261 137.893C326.702 137.893 316.505 127.141 316.505 111.43V111.414ZM328.243 105.212H351.639C351.541 99.5984 348.049 94.738 340.671 94.738C334.654 94.738 329.998 98.3219 328.243 105.212Z" fill="black"/>
<path d="M368.1 111.414C368.1 96.98 376.248 84.9516 390.528 84.9516C397.135 84.9516 401.988 87.57 405.185 91.3504V67.2117H416.842V136.796H405.185V131.461C401.988 135.242 397.119 137.86 390.528 137.86C376.248 137.86 368.1 125.848 368.1 111.398V111.414ZM392.856 95.1471C384.413 95.1471 379.838 101.742 379.838 111.43C379.838 121.119 384.396 127.714 392.856 127.714C400.037 127.714 405.48 122.379 405.48 112.985V109.99C405.48 100.4 400.037 95.1635 392.856 95.1635V95.1471Z" fill="black"/>
<path d="M460.715 131.478V136.813H449.058V67.2281H460.715V91.3667C463.912 87.5864 468.781 84.968 475.372 84.968C489.652 84.968 497.8 96.98 497.8 111.43C497.8 125.881 489.652 137.893 475.372 137.893C468.765 137.893 463.912 135.275 460.715 131.494V131.478ZM460.436 112.969C460.436 122.379 465.879 127.697 473.06 127.697C481.504 127.697 486.061 121.102 486.061 111.414C486.061 101.726 481.504 95.1307 473.06 95.1307C465.879 95.1307 460.436 100.368 460.436 109.958V112.969Z" fill="black"/>
<path d="M507.801 154.651C505.375 154.651 504.686 154.553 503.047 154.356V144.57C504.604 144.766 505.473 144.865 506.932 144.865C510.818 144.865 512.654 143.801 514.31 139.726L516.245 134.98L497.702 85.9499H509.932L522.458 121.61L534.689 85.9499H546.723L525.754 141.575C522.835 149.332 518.376 154.667 507.785 154.667L507.801 154.651Z" fill="black"/>
<path d="M859.768 6.9552C868.736 6.9552 876.032 14.2377 876.032 23.1895V162.359C876.032 171.311 868.736 178.593 859.768 178.593H23.2317C14.2636 178.593 6.96786 171.311 6.96786 162.359V23.1895C6.96786 14.2377 14.2636 6.9552 23.2317 6.9552H859.768ZM859.768 0H23.2317C10.4108 0 0 10.3919 0 23.1895V162.359C0 175.173 10.4108 185.548 23.2317 185.548H859.768C872.606 185.548 883 175.157 883 162.359V23.1895C883 10.3755 872.589 0 859.768 0Z" fill="black"/>
<path d="M689.137 64.1746C696.44 64.1746 699.149 59.7055 699.149 54.1803C699.149 48.655 696.452 44.1859 689.137 44.1859C681.821 44.1859 679.124 48.655 679.124 54.1803C679.124 59.7055 681.821 64.1746 689.137 64.1746Z" fill="#0033FF"/>
<path d="M605.849 44.1987H575.463V136.969H605.849C643.383 136.969 654.105 115.563 654.105 90.5772C654.105 65.5913 643.383 44.1987 605.849 44.1987ZM606.21 122.698H592.624V58.469H606.21C627.797 58.469 636.958 69.043 636.958 90.5772C636.958 112.111 627.797 122.685 606.21 122.685V122.698Z" fill="black"/>
<path d="M724.167 66.3255V72.7523H707.729V87.0226H724.167V122.711H696.994V72.7394H661.253V87.0097H681.266V122.698H657.667V136.969H764.902V122.698H739.883V87.0097H764.902V72.7394H739.883V58.4691H764.902V44.1988H746.309C734.09 44.1988 724.142 54.1287 724.142 66.3255H724.167Z" fill="#0033FF"/>
<path d="M815.868 72.7393L801.571 119.131L787.275 72.7393H770.295L791.03 132.744C793.184 138.991 789.533 144.104 782.914 144.104H775.65V158.374H786.333C795.649 158.374 804.036 152.488 807.184 143.743L832.848 72.7393H815.868Z" fill="black"/>
</svg>
