<svg width="640" height="167" viewBox="0 0 640 167" fill="none" xmlns="http://www.w3.org/2000/svg">
<g clip-path="url(#clip0_1961_12073)">
<path d="M146.324 58.7304C153.155 58.7304 155.689 54.5426 155.689 49.3652C155.689 44.1878 153.167 40 146.324 40C139.481 40 136.959 44.1878 136.959 49.3652C136.959 54.5426 139.481 58.7304 146.324 58.7304Z" fill="#0033FF"/>
<path d="M68.4215 40.012H40V126.942H68.4215C103.529 126.942 113.558 106.884 113.558 83.471C113.558 60.0579 103.529 40.012 68.4215 40.012ZM68.7594 113.57H56.0512V53.384H68.7594C88.9502 53.384 97.5188 63.2923 97.5188 83.471C97.5188 103.65 88.9502 113.558 68.7594 113.558V113.57Z" fill="black"/>
<path d="M179.09 60.7459V66.7681H163.715V80.1401H179.09V113.582H153.674V66.7561H120.244V80.128H138.962V113.57H116.889V126.942H217.191V113.57H193.79V80.128H217.191V66.7561H193.79V53.3841H217.191V40.0121H199.8C188.371 40.0121 179.066 49.317 179.066 60.7459H179.09Z" fill="#0033FF"/>
<path d="M264.862 66.756L251.49 110.227L238.118 66.756H222.235L241.63 122.984C243.645 128.837 240.23 133.628 234.038 133.628H227.244V147H237.237C245.95 147 253.795 141.485 256.739 133.29L280.744 66.756H264.862Z" fill="black"/>
<path d="M359.833 39.5298H387.226V45.8427H366.935V55.9885H384.014V62.3014H366.935V73.6871H387.226V80H359.833V39.5298Z" fill="black"/>
<path d="M397.879 39.5298V80H391.115V39.5298H397.879Z" fill="black"/>
<path d="M403.52 46.4628V39.5298H410.51V46.4628H403.52ZM410.397 50.4083V80H403.633V50.4083H410.397Z" fill="black"/>
<path d="M416.771 72.5598V56.1576H412.657V50.4083H416.771V41.7281H423.423V50.4083H429.623V56.1576H423.423V71.4889C423.423 74.1381 424.944 74.4199 427.368 74.4199C428.495 74.4199 429.115 74.3635 430.13 74.2508V79.9437C428.89 80.1691 427.199 80.3382 425.452 80.3382C419.815 80.3382 416.771 78.5909 416.771 72.5598Z" fill="black"/>
<path d="M446.082 80.62C437.627 80.62 431.709 74.3635 431.709 65.2324C431.709 56.5521 437.571 49.8447 445.8 49.8447C454.367 49.8447 458.933 56.3267 458.933 64.4432V66.6978H438.191C438.698 71.7707 441.742 74.8708 446.082 74.8708C449.407 74.8708 452.057 73.1798 452.958 70.1361L458.764 72.3344C456.678 77.52 452 80.62 446.082 80.62ZM445.744 55.5375C442.249 55.5375 439.543 57.6231 438.529 61.625H452.113C452.057 58.3558 450.027 55.5375 445.744 55.5375Z" fill="black"/>
<path d="M367.048 111.331V127H359.833V86.5298H376.01C385.028 86.5298 390.665 90.7572 390.665 98.9302C390.665 106.99 385.028 111.331 376.01 111.331H367.048ZM367.048 105.13H375.615C380.801 105.13 383.563 102.876 383.563 98.9302C383.563 94.9283 380.801 92.73 375.615 92.73H367.048V105.13Z" fill="black"/>
<path d="M400.546 127.507C394.909 127.507 390.569 124.069 390.569 118.771C390.569 113.134 394.797 110.654 400.489 109.47L408.662 107.78V107.272C408.662 104.454 407.197 102.707 403.59 102.707C400.377 102.707 398.686 104.172 397.897 107.047L391.527 105.581C392.993 100.678 397.333 96.8447 403.871 96.8447C410.973 96.8447 415.257 100.227 415.257 107.047V119.785C415.257 121.476 415.99 121.984 417.85 121.758V127C412.946 127.564 410.353 126.605 409.339 124.182C407.479 126.267 404.379 127.507 400.546 127.507ZM408.662 116.572V112.965L402.293 114.318C399.419 114.938 397.277 115.84 397.277 118.489C397.277 120.8 398.968 122.096 401.56 122.096C405.168 122.096 408.662 120.18 408.662 116.572Z" fill="black"/>
<path d="M438.099 97.352V104.116C437.254 104.003 436.577 103.947 435.619 103.947C431.335 103.947 428.066 106.709 428.066 111.443V127H421.302V97.4083H428.066V101.805C429.362 99.0429 432.406 97.2392 436.183 97.2392C436.972 97.2392 437.592 97.2956 438.099 97.352Z" fill="black"/>
<path d="M442.587 119.56V103.158H438.473V97.4083H442.587V88.7281H449.238V97.4083H455.438V103.158H449.238V118.489C449.238 121.138 450.76 121.42 453.184 121.42C454.311 121.42 454.931 121.364 455.946 121.251V126.944C454.706 127.169 453.015 127.338 451.267 127.338C445.631 127.338 442.587 125.591 442.587 119.56Z" fill="black"/>
<path d="M459.66 127V97.4083H466.423V100.565C468.114 98.592 470.764 96.8447 474.596 96.8447C480.797 96.8447 484.517 101.128 484.517 107.498V127H477.753V109.47C477.753 105.807 476.287 103.158 472.567 103.158C469.524 103.158 466.423 105.412 466.423 109.64V127H459.66Z" fill="black"/>
<path d="M502.58 127.62C494.126 127.62 488.207 121.364 488.207 112.232C488.207 103.552 494.069 96.8447 502.299 96.8447C510.866 96.8447 515.432 103.327 515.432 111.443V113.698H494.689C495.197 118.771 498.24 121.871 502.58 121.871C505.906 121.871 508.555 120.18 509.457 117.136L515.263 119.334C513.177 124.52 508.499 127.62 502.58 127.62ZM502.242 102.538C498.748 102.538 496.042 104.623 495.027 108.625H508.611C508.555 105.356 506.526 102.538 502.242 102.538Z" fill="black"/>
<path d="M535.951 97.352V104.116C535.105 104.003 534.429 103.947 533.471 103.947C529.187 103.947 525.918 106.709 525.918 111.443V127H519.154V97.4083H525.918V101.805C527.214 99.0429 530.258 97.2392 534.034 97.2392C534.823 97.2392 535.443 97.2956 535.951 97.352Z" fill="black"/>
<path d="M640 0.194214H0V166.806H640V0.194214ZM1.99907 164.807V2.19263H319V164.807H1.99907ZM638.001 164.807H321V2.19263H638.001V164.807Z" fill="black"/>
</g>
<defs>
<clipPath id="clip0_1961_12073">
<rect width="640" height="167" fill="white"/>
</clipPath>
</defs>
</svg>
