<svg width="640" height="167" viewBox="0 0 640 167" fill="none" xmlns="http://www.w3.org/2000/svg">
<g clip-path="url(#clip0_1961_12061)">
<path d="M146.324 58.7304C153.155 58.7304 155.689 54.5426 155.689 49.3652C155.689 44.1878 153.167 40 146.324 40C139.481 40 136.959 44.1878 136.959 49.3652C136.959 54.5426 139.481 58.7304 146.324 58.7304Z" fill="#0033FF"/>
<path d="M68.4215 40.0121H40V126.942H68.4215C103.529 126.942 113.558 106.884 113.558 83.471C113.558 60.058 103.529 40.0121 68.4215 40.0121ZM68.7594 113.57H56.0512V53.3841H68.7594C88.9502 53.3841 97.5188 63.2924 97.5188 83.471C97.5188 103.65 88.9502 113.558 68.7594 113.558V113.57Z" fill="black"/>
<path d="M179.09 60.7459V66.7681H163.715V80.1401H179.09V113.582H153.674V66.7561H120.244V80.128H138.962V113.57H116.889V126.942H217.191V113.57H193.79V80.128H217.191V66.7561H193.79V53.3841H217.191V40.0121H199.8C188.371 40.0121 179.066 49.317 179.066 60.7459H179.09Z" fill="#0033FF"/>
<path d="M264.862 66.756L251.49 110.227L238.118 66.756H222.235L241.63 122.983C243.645 128.837 240.23 133.628 234.038 133.628H227.244V147H237.237C245.95 147 253.795 141.485 256.739 133.29L280.744 66.756H264.862Z" fill="black"/>
<path d="M367.048 88.3305V104H359.833V63.5298H376.01C385.028 63.5298 390.665 67.7572 390.665 75.9301C390.665 83.9903 385.028 88.3305 376.01 88.3305H367.048ZM367.048 82.1303H375.615C380.801 82.1303 383.563 79.8757 383.563 75.9301C383.563 71.9282 380.801 69.73 375.615 69.73H367.048V82.1303Z" fill="black"/>
<path d="M400.546 104.507C394.909 104.507 390.569 101.069 390.569 95.7707C390.569 90.1341 394.797 87.6541 400.489 86.4704L408.662 84.7794V84.2722C408.662 81.4539 407.197 79.7066 403.59 79.7066C400.377 79.7066 398.686 81.1721 397.897 84.0467L391.527 82.5812C392.993 77.6774 397.333 73.8446 403.871 73.8446C410.973 73.8446 415.257 77.2265 415.257 84.0467V96.7852C415.257 98.4762 415.99 98.9835 417.85 98.758V104C412.946 104.564 410.353 103.605 409.339 101.182C407.479 103.267 404.379 104.507 400.546 104.507ZM408.662 93.5724V89.965L402.293 91.3178C399.419 91.9378 397.277 92.8397 397.277 95.4888C397.277 97.7998 398.968 99.0962 401.56 99.0962C405.168 99.0962 408.662 97.1798 408.662 93.5724Z" fill="black"/>
<path d="M438.099 74.3519V81.1157C437.254 81.003 436.577 80.9466 435.619 80.9466C431.335 80.9466 428.066 83.7085 428.066 88.4432V104H421.302V74.4083H428.066V78.8047C429.362 76.0429 432.406 74.2392 436.183 74.2392C436.972 74.2392 437.592 74.2955 438.099 74.3519Z" fill="black"/>
<path d="M442.587 96.5598V80.1575H438.473V74.4083H442.587V65.728H449.238V74.4083H455.438V80.1575H449.238V95.4888C449.238 98.138 450.76 98.4198 453.184 98.4198C454.311 98.4198 454.931 98.3634 455.946 98.2507V103.944C454.706 104.169 453.015 104.338 451.267 104.338C445.631 104.338 442.587 102.591 442.587 96.5598Z" fill="black"/>
<path d="M459.66 104V74.4083H466.423V77.5647C468.114 75.5919 470.764 73.8446 474.596 73.8446C480.797 73.8446 484.517 78.1284 484.517 84.4976V104H477.753V86.4704C477.753 82.8067 476.287 80.1575 472.567 80.1575C469.524 80.1575 466.423 82.4121 466.423 86.6395V104H459.66Z" fill="black"/>
<path d="M502.58 104.62C494.126 104.62 488.207 98.3634 488.207 89.2323C488.207 80.5521 494.069 73.8446 502.299 73.8446C510.866 73.8446 515.432 80.3266 515.432 88.4432V90.6978H494.689C495.197 95.7707 498.24 98.8707 502.58 98.8707C505.906 98.8707 508.555 97.1798 509.457 94.1361L515.263 96.3343C513.177 101.52 508.499 104.62 502.58 104.62ZM502.242 79.5375C498.748 79.5375 496.042 81.623 495.027 85.6249H508.611C508.555 82.3557 506.526 79.5375 502.242 79.5375Z" fill="black"/>
<path d="M535.951 74.3519V81.1157C535.105 81.003 534.429 80.9466 533.471 80.9466C529.187 80.9466 525.918 83.7085 525.918 88.4432V104H519.154V74.4083H525.918V78.8047C527.214 76.0429 530.258 74.2392 534.034 74.2392C534.823 74.2392 535.443 74.2955 535.951 74.3519Z" fill="black"/>
<path d="M640 0.194214H0V166.806H640V0.194214ZM1.99907 164.807V2.19263H319V164.807H1.99907ZM638.001 164.807H321V2.19263H638.001V164.807Z" fill="black"/>
</g>
<defs>
<clipPath id="clip0_1961_12061">
<rect width="640" height="167" fill="white"/>
</clipPath>
</defs>
</svg>
