<svg width="640" height="167" viewBox="0 0 640 167" fill="none" xmlns="http://www.w3.org/2000/svg">
<g clip-path="url(#clip0_1961_12069)">
<path d="M146.324 58.7304C153.155 58.7304 155.689 54.5426 155.689 49.3652C155.689 44.1878 153.167 40 146.324 40C139.481 40 136.959 44.1878 136.959 49.3652C136.959 54.5426 139.481 58.7304 146.324 58.7304Z" fill="#0033FF"/>
<path d="M68.4215 40.0121H40V126.942H68.4215C103.529 126.942 113.558 106.884 113.558 83.471C113.558 60.058 103.529 40.0121 68.4215 40.0121ZM68.7594 113.57H56.0512V53.3841H68.7594C88.9502 53.3841 97.5188 63.2924 97.5188 83.471C97.5188 103.65 88.9502 113.558 68.7594 113.558V113.57Z" fill="black"/>
<path d="M179.09 60.7459V66.7681H163.715V80.1401H179.09V113.582H153.674V66.7561H120.244V80.128H138.962V113.57H116.889V126.942H217.191V113.57H193.79V80.128H217.191V66.7561H193.79V53.3841H217.191V40.0121H199.8C188.371 40.0121 179.066 49.317 179.066 60.7459H179.09Z" fill="#0033FF"/>
<path d="M264.862 66.756L251.49 110.227L238.118 66.756H222.235L241.63 122.983C243.645 128.837 240.23 133.628 234.038 133.628H227.244V147H237.237C245.95 147 253.795 141.485 256.739 133.29L280.744 66.756H264.862Z" fill="black"/>
<path d="M367.048 64.3305V80H359.833V39.5298H376.01C385.028 39.5298 390.665 43.7572 390.665 51.9301C390.665 59.9904 385.028 64.3305 376.01 64.3305H367.048ZM367.048 58.1303H375.615C380.801 58.1303 383.563 55.8757 383.563 51.9301C383.563 47.9282 380.801 45.73 375.615 45.73H367.048V58.1303Z" fill="black"/>
<path d="M410.058 50.3519V57.1157C409.213 57.003 408.536 56.9466 407.578 56.9466C403.294 56.9466 400.025 59.7085 400.025 64.4432V80H393.262V50.4083H400.025V54.8048C401.322 52.0429 404.365 50.2392 408.142 50.2392C408.931 50.2392 409.551 50.2956 410.058 50.3519Z" fill="black"/>
<path d="M424.458 80.62C416.003 80.62 410.085 74.3635 410.085 65.2323C410.085 56.5521 415.947 49.8446 424.176 49.8446C432.744 49.8446 437.309 56.3266 437.309 64.4432V66.6978H416.567C417.074 71.7707 420.118 74.8708 424.458 74.8708C427.783 74.8708 430.433 73.1798 431.334 70.1361L437.14 72.3343C435.054 77.5199 430.376 80.62 424.458 80.62ZM424.12 55.5375C420.625 55.5375 417.919 57.623 416.905 61.6249H430.489C430.433 58.3558 428.403 55.5375 424.12 55.5375Z" fill="black"/>
<path d="M454.728 38.9662V44.8845C453.939 44.8281 453.544 44.8281 452.699 44.8281C450.05 44.8281 448.584 45.6172 448.584 48.9992V50.4083H454.615V56.1575H448.584V80H441.821V56.1575H437.706V50.4083H441.821V48.4919C441.821 42.3481 445.259 38.9098 451.91 38.9098C452.981 38.9098 453.488 38.9098 454.728 38.9662Z" fill="black"/>
<path d="M469.365 80.62C460.911 80.62 454.992 74.3635 454.992 65.2323C454.992 56.5521 460.854 49.8446 469.084 49.8446C477.651 49.8446 482.217 56.3266 482.217 64.4432V66.6978H461.474C461.982 71.7707 465.025 74.8708 469.365 74.8708C472.691 74.8708 475.34 73.1798 476.242 70.1361L482.048 72.3343C479.962 77.5199 475.284 80.62 469.365 80.62ZM469.027 55.5375C465.533 55.5375 462.827 57.623 461.813 61.6249H475.397C475.34 58.3558 473.311 55.5375 469.027 55.5375Z" fill="black"/>
<path d="M502.736 50.3519V57.1157C501.89 57.003 501.214 56.9466 500.256 56.9466C495.972 56.9466 492.703 59.7085 492.703 64.4432V80H485.939V50.4083H492.703V54.8048C493.999 52.0429 497.043 50.2392 500.819 50.2392C501.609 50.2392 502.229 50.2956 502.736 50.3519Z" fill="black"/>
<path d="M522.85 50.3519V57.1157C522.005 57.003 521.328 56.9466 520.37 56.9466C516.086 56.9466 512.817 59.7085 512.817 64.4432V80H506.053V50.4083H512.817V54.8048C514.114 52.0429 517.157 50.2392 520.934 50.2392C521.723 50.2392 522.343 50.2956 522.85 50.3519Z" fill="black"/>
<path d="M537.25 80.62C528.795 80.62 522.877 74.3635 522.877 65.2323C522.877 56.5521 528.739 49.8446 536.968 49.8446C545.535 49.8446 550.101 56.3266 550.101 64.4432V66.6978H529.359C529.866 71.7707 532.91 74.8708 537.25 74.8708C540.575 74.8708 543.225 73.1798 544.126 70.1361L549.932 72.3343C547.846 77.5199 543.168 80.62 537.25 80.62ZM536.912 55.5375C533.417 55.5375 530.711 57.623 529.697 61.6249H543.281C543.225 58.3558 541.195 55.5375 536.912 55.5375Z" fill="black"/>
<path d="M564.984 80.62C556.698 80.62 551.963 73.6307 551.963 65.2323C551.963 56.8339 556.698 49.8446 564.984 49.8446C568.816 49.8446 571.635 51.3665 573.495 53.5647V39.5298H580.259V80H573.495V76.8999C571.635 79.0981 568.816 80.62 564.984 80.62ZM573.664 64.3868C573.664 58.8067 570.507 55.763 566.336 55.763C561.433 55.763 558.783 59.5958 558.783 65.2323C558.783 70.8688 561.433 74.7017 566.336 74.7017C570.507 74.7017 573.664 71.6016 573.664 66.1342V64.3868Z" fill="black"/>
<path d="M367.048 111.33V127H359.833V86.5298H376.01C385.028 86.5298 390.665 90.7572 390.665 98.9301C390.665 106.99 385.028 111.33 376.01 111.33H367.048ZM367.048 105.13H375.615C380.801 105.13 383.563 102.876 383.563 98.9301C383.563 94.9282 380.801 92.73 375.615 92.73H367.048V105.13Z" fill="black"/>
<path d="M400.546 127.507C394.909 127.507 390.569 124.069 390.569 118.771C390.569 113.134 394.797 110.654 400.489 109.47L408.662 107.779V107.272C408.662 104.454 407.197 102.707 403.59 102.707C400.377 102.707 398.686 104.172 397.897 107.047L391.527 105.581C392.993 100.677 397.333 96.8446 403.871 96.8446C410.973 96.8446 415.257 100.227 415.257 107.047V119.785C415.257 121.476 415.99 121.983 417.85 121.758V127C412.946 127.564 410.353 126.605 409.339 124.182C407.479 126.267 404.379 127.507 400.546 127.507ZM408.662 116.572V112.965L402.293 114.318C399.419 114.938 397.277 115.84 397.277 118.489C397.277 120.8 398.968 122.096 401.56 122.096C405.168 122.096 408.662 120.18 408.662 116.572Z" fill="black"/>
<path d="M438.099 97.3519V104.116C437.254 104.003 436.577 103.947 435.619 103.947C431.335 103.947 428.066 106.709 428.066 111.443V127H421.302V97.4083H428.066V101.805C429.362 99.0429 432.406 97.2392 436.183 97.2392C436.972 97.2392 437.592 97.2955 438.099 97.3519Z" fill="black"/>
<path d="M442.587 119.56V103.158H438.473V97.4083H442.587V88.728H449.238V97.4083H455.438V103.158H449.238V118.489C449.238 121.138 450.76 121.42 453.184 121.42C454.311 121.42 454.931 121.363 455.946 121.251V126.944C454.706 127.169 453.015 127.338 451.267 127.338C445.631 127.338 442.587 125.591 442.587 119.56Z" fill="black"/>
<path d="M459.66 127V97.4083H466.423V100.565C468.114 98.5919 470.764 96.8446 474.596 96.8446C480.797 96.8446 484.517 101.128 484.517 107.498V127H477.753V109.47C477.753 105.807 476.287 103.158 472.567 103.158C469.524 103.158 466.423 105.412 466.423 109.64V127H459.66Z" fill="black"/>
<path d="M502.58 127.62C494.126 127.62 488.207 121.363 488.207 112.232C488.207 103.552 494.069 96.8446 502.299 96.8446C510.866 96.8446 515.432 103.327 515.432 111.443V113.698H494.689C495.197 118.771 498.24 121.871 502.58 121.871C505.906 121.871 508.555 120.18 509.457 117.136L515.263 119.334C513.177 124.52 508.499 127.62 502.58 127.62ZM502.242 102.538C498.748 102.538 496.042 104.623 495.027 108.625H508.611C508.555 105.356 506.526 102.538 502.242 102.538Z" fill="black"/>
<path d="M535.951 97.3519V104.116C535.105 104.003 534.429 103.947 533.471 103.947C529.187 103.947 525.918 106.709 525.918 111.443V127H519.154V97.4083H525.918V101.805C527.214 99.0429 530.258 97.2392 534.034 97.2392C534.823 97.2392 535.443 97.2955 535.951 97.3519Z" fill="black"/>
<path d="M640 0.194214H0V166.806H640V0.194214ZM1.99907 164.807V2.19263H319V164.807H1.99907ZM638.001 164.807H321V2.19263H638.001V164.807Z" fill="black"/>
</g>
<defs>
<clipPath id="clip0_1961_12069">
<rect width="640" height="167" fill="white"/>
</clipPath>
</defs>
</svg>
