<svg width="800" height="800" viewBox="0 0 800 800" fill="none" xmlns="http://www.w3.org/2000/svg">
<rect width="800" height="800" fill="white"/>
<path d="M376.988 323.564C394.012 323.564 400.329 313.153 400.329 300.282C400.329 287.411 394.042 277 376.988 277C359.934 277 353.647 287.411 353.647 300.282C353.647 313.153 359.934 323.564 376.988 323.564Z" fill="#0033FF"/>
<path d="M182.834 277.03H112V493.136H182.834C270.332 493.136 295.327 443.273 295.327 385.068C295.327 326.864 270.332 277.03 182.834 277.03ZM183.676 459.894H152.004V310.273H183.676C233.997 310.273 255.353 334.905 255.353 385.068C255.353 435.232 233.997 459.864 183.676 459.864V459.894Z" fill="black"/>
<path d="M458.652 328.574V343.545H420.332V376.788H458.652V459.924H395.307V343.515H311.991V376.758H358.642V459.894H303.629V493.136H553.609V459.894H495.287V376.758H553.609V343.515H495.287V310.273H553.609V277.03H510.266C481.782 277.03 458.592 300.162 458.592 328.574H458.652Z" fill="#0033FF"/>
<path d="M672.416 343.515L639.089 451.583L605.763 343.515H566.18L614.515 483.295C619.538 497.847 611.026 509.757 595.596 509.757H578.662V543H603.567C625.283 543 644.834 529.289 652.173 508.917L711.999 343.515H672.416Z" fill="black"/>
</svg>
